<svg id="Layer_1" data-name="Layer 1" xmlns="http://www.w3.org/2000/svg" viewBox="0 0 512 512"><title>joystick</title><path d="M206.54,344.6c.07-.12-3.43-9.07,7.48-1.39l10.39,3.74a62.53,62.53,0,0,0,10.13-2l5.85,5.59c-.29-.36-1,6.41-20.79,30.31-10.08,11.79-25,27.85-49.58,47.12-25.81,15.21-55.52,51.62-122.87,41.78,1.54,4.1-37.07-14.58-42.07-54.2a203,203,0,0,1,21.6-145.81c.24.25,6.15-13,24.79-30.9,20.68-18.18,47.64-33.25,85.93-47.5,75-26,187.51-31.07,285.53,24.58,47.29,31.79,82.67,80.81,88.56,137.71,1.87,26.95-.3,58.21-25.31,81.73-28.49,23-61.57,12.55-81.31,2.54-40.76-23.56-62.66-50.62-84-65.36-20.33-15.32-35.36-20.68-41.25-22.51-.07-.24,25.55,5.42,59.92,36.39,17.69,14.42,36.83,34.65,66.43,50.84,14.95,7.81,33.63,13.84,55.19,9.62,22.6-4.52,39.32-25,44.45-43.36,11.44-37.59,4.68-73.78-10.65-105.65-15.55-29-34.94-54.06-57.91-71.47-46.32-34.2-85.87-38.48-93.39-41.4-.25,1.28,30.8,4.77,73.6,29.49,41.13,25.7,90.36,79.07,91.9,150.18,0,17.13-2.56,35.18-12,52.18-8.82,17.47-31,29.87-49.8,28.87-37.67-2-61.38-24.6-80.3-39.95-36.79-34.28-64.18-53.06-72.12-56.06.15-.48,24.19,10.3,56.35,39.63C368,403.05,386.18,422,414.17,435c14.05,5.89,30.8,10.52,49.13,5.4,18.88-4.94,31.95-22.23,36.78-38.42,20.58-68.33-21.71-130.69-59.18-163.52-41.12-33.87-80-40.13-89.79-42.12-.25.67,27,4.77,63.45,26.95,35,22.71,77.14,67.52,84.36,127.18,2.63,27.66-.49,63.49-28.81,80-29.27,13.63-57.34-2.62-75.44-15.72-36.89-29.45-61.65-55-72.61-62.16,1.92-2.27,60.81,53.43,80,64A281.2,281.2,0,0,1,373,392.7c15.45,12.86,31.41,25.69,50.09,33.17,10.77,3.91,22.45,6.75,34.18,4.76.32.65-24.89,2.75-45.73-11-20.58-12.91-38.31-31.2-40.36-33.83,0,0-8.63-6.52-.84.63A277,277,0,0,0,398,408.82c13.21,8.4,48.05,34.38,78.26,5.25-.81,1.05,19.84-19,13.16-66.92-5.6-44.3-47.16-115.83-134.7-138.09-80.89-24.72-206.85-24.43-294.28,59.69C26.55,312.61,15.91,395.82,49.51,438.92c20.16,12.65,56.2-3.32,83-21.83C160.1,397.49,187.47,372.34,206.54,344.6Z" fill="#231f20"/><path d="M265.1,177.19s4.06,1.4-2.62,1.14l-5.31.28-3.82.8-3.92-.51c-2.27,1.25,4.12-5.61-12.56-21.29.29-.32-8.53-4.36-22.28-12,0-.46-6.3-2.87-16.19-11-10.83-7.7-20.1-25.47-21.11-41.16,2.36-34.11-15.43-45.83-20.74-49.48-.29,0,15.73,8.42,18.24,22.67,2,14.29,3.13,37.44,5.59,39.29-.77.41-3.32-20.14-3.79-35.55S161.28,45.17,159.8,42.9c-.46.09,14.68,8.25,17.76,23,2.55,14.47,3.32,35.05,6.66,37.38-.55.13-2.61-16.42-2.78-31.83-.15-15.83-13.21-28.12-15.75-30.81.12-.11,8.79,7.76,10.45,10.41l-3.08-4.56a39.33,39.33,0,0,1,5.64,6.79l2,4.69c.63-.14-5.93-12.67-6.85-13.57-1.2,1-2.74-5.89,10.33,16.34,1.32-.06.93,15.23,5.25,40,2.58,12.86,13.25,24.85,29.58,31.68C232.9,139.62,260.18,145.82,265.1,177.19Z" fill="#231f20"/><path d="M97,273.59s-4.58-.54,3.12-.5l6.16-.23,4.53-.55,4.49.16s1.29,1.43,3.85,17.34a43.63,43.63,0,0,1,2.57,14.93s-1.33,62.21-4,66.89c0,0,3.87-39,2.64-41.46,0,0-3.16,37.3-5.63,40.16,0,0,3.64-36.18.5-39.39,0,0-3.34,33.31-6.45,37.33,0,0,1.23-6.4.86-8.1l-.94,3,.14-4.8.72-2.78s-2.15,7.51-3.24,8c0,0,1.3,3.42.81-10.13C107.13,353.48,114.7,321.43,97,273.59Z" fill="#231f20"/><path d="M83.93,337s1.31,4.33-1.44-2.84L80.1,328.4,78,324.29l-1.53-4.22c.11,0,.39-1.48,13.46-7.2a21.42,21.42,0,0,1,12.29-4.13c.87-1.14,50,1.3,52.91,4.3.18,0-29.78-4.7-32.07-3.5.28,0,29.09,3.92,31.06,6.45.11,0-27.74-4.38-30.51-1.3.13,0,25.84,4,28.87,7.23,0,0-4.94-1.38-6.26-1l2.28,1-3.71-.24-2.14-.78s5.78,2.31,6.17,3.42c0,0,2.69-1.23-7.87-1C142.85,324.27,111.95,312,83.93,337Z" fill="#231f20"/><path d="M405.47,293.64s4.68.59-2.93,1l-6,.62-4.34.71h-4.48c-.5,1.74-.82-5.1-6.29-4.82-.07,0-2.24,1.35-4.85,2.81-.56.68-4.86-.18-1.26,7.44-1.94,4.31,10.28-3.86,9.75-5.18.54-.27-3.43,6-8,6.66-2.42.22-1.68-1.88-3.22-3.59-.17.29.79,4.71,2.59,4.75,4.33.88,10.52-5.55,11.21-6.06.57-.15-3.79,6.59-9.49,8-5,1.44-6.48-3.11-8.85-4.2.15.13,1.16,6.55,7.19,7.62,6.88.67,13.9-6.33,16-7.44-.07.07-4.26,4.77-5.47,5.81l2.78-1.41-3.53,3.27-2.69.89c.12.51,7.14-3,8.33-3.11-.56-.58,2.59-2.32-9.09,6.3,1.26-.36-11.92,5.22-19.15-8.67-2.83-6-4.93-16.78,4.76-24.34C374.54,272.6,399.62,271.85,405.47,293.64Z" fill="#231f20"/><path d="M404.38,342.21s4.24,2-3.11,0L395.32,341l-4.34-.68-4.26-1.38c-1,1.5.81-5.1-4.48-6.54-.07-.07-2.54.59-5.5,1.17-.72.47-4.54-1.67-3.48,6.68-3.16,3.5,11-.49,10.86-1.89.61-.1-5.12,4.66-9.71,3.83-2.37-.55-1-2.32-1.94-4.41-.25.21-.71,4.73,1,5.31,3.82,2.17,11.71-2,12.52-2.29.61,0-5.64,5.09-11.5,4.69-5.18-.17-5.2-5-7.12-6.75.1.17-.93,6.59,4.48,9.49,6.33,2.76,15.16-1.71,17.47-2.13-.08.06-5.52,3.22-7,3.83l3.08-.49-4.38,2-2.83,0c-.05.51,7.71-.61,8.89-.38-.35-.73,3.16-1.41-10.6,3.16,1.31.05-12.94,1.26-15.52-14.18-.84-6.54.49-17.49,12.07-21.66C381.47,312.61,405.56,319.68,404.38,342.21Z" fill="#231f20"/><path d="M446.67,301.19s4.19,2.11-3.1,0l-5.91-1.43-4.34-.79-4.21-1.51c-1.06,1.48.93-5.07-4.31-6.66,0-.07-2.56.52-5.52,1-.74.45-4.51-1.79-3.67,6.6-3.27,3.43,11-.19,10.91-1.61.61-.08-5.25,4.52-9.81,3.58-2.36-.6-.94-2.35-1.82-4.47-.25.22-.82,4.72.86,5.35,3.75,2.27,11.76-1.71,12.57-2,.61.08-5.77,5-11.63,4.39-5.17-.31-5-5.12-6.93-7,.12.18-1.09,6.56,4.23,9.6,6.26,3,15.21-1.29,17.52-1.66-.08.07-5.6,3.08-7.1,3.65l3.1-.4-4.44,1.88-2.81,0c-.07.51,7.71-.4,8.89-.14-.34-.75,3.21-1.34-10.67,2.88,1.31.08-13,.93-15.13-14.6-.69-6.56,1-17.46,12.64-21.32C424.58,271,448.46,278.71,446.67,301.19Z" fill="#231f20"/><path d="M445.55,345.41s3.89,2.63-3.08-.43l-5.67-2.15-4.21-1.35-4-2c-1.25,1.33,1.57-4.92-3.45-7.15-.05-.08-2.59.2-5.59.32-.79.35-4.26-2.35-4.48,6.08-3.67,3,10.91,1.2,11-.21.61,0-5.77,3.83-10.18,2.31-2.26-.89-.66-2.45-1.25-4.65-.29.18-1.41,4.57.17,5.41,3.45,2.73,11.88-.2,12.72-.36.59.14-6.34,4.18-12.08,2.89-5.08-1-4.38-5.72-6-7.77.08.18-1.9,6.36,3,10.07,5.84,3.7,15.25.64,17.59.57-.08.06-5.94,2.33-7.51,2.71h3.13L421,351l-2.79-.4c-.12.5,7.71.59,8.84,1-.24-.78,3.37-.92-11,1.5,1.3.25-13-.72-13.18-16.39.17-6.6,3.18-17.2,15.25-19.55C427.45,312.66,450.18,323.33,445.55,345.41Z" fill="#231f20"/></svg>